# xmcd CD database file
#
# Track frame offsets:
#	150
#	26140
#	51559
#	77570
#	109942
#	130668
#	159745
#	173381
#	198937
#	216455
#	249203
#
# Disc length: 3702 seconds
#
# Revision: 0
# Processed by: cddbd v1.5.2PL0 Copyright (c) Steve Scherf et al.
# Submitted via: CDex 1.82
#
DISCID=920e740b
DTITLE=Kyle Eastwood - Cinematic
DYEAR=2019
DGENRE=Jazz
TTITLE0=Bullitt
TTITLE1=Taxi Driver - Theme
TTITLE2=Les Moulins De Mon Coeur (Feat.Camille Bertault)
TTITLE3=The Eiger Sanction
TTITLE4=Gran Torino (Feat.Hugh Coltman)
TTITLE5=Pink Panther - Theme
TTITLE6=Per Le Antiche Scale
TTITLE7=Charade
TTITLE8=Unforgiven - Claudia's Theme
TTITLE9=Skyfall
TTITLE10=Gran Torino
EXTD=YEAR: 2019
EXTT0=
EXTT1=
EXTT2=
EXTT3=
EXTT4=
EXTT5=
EXTT6=
EXTT7=
EXTT8=
EXTT9=
EXTT10=
PLAYORDER=
